ply
format ascii 1.0
comment Created by Blender 2.76 (sub 0) - www.blender.org, source file: ''
element vertex 227
property float x
property float y
property float z
element face 164
property list uchar uint vertex_indices
end_header
1.724216 -1.167930 -0.007092
1.824208 -1.295148 -0.014528
1.867600 -1.251260 -0.011860
1.712412 -1.187610 -0.060048
1.864892 -1.249510 -0.060250
1.827282 -1.299010 -0.060128
2.589322 -0.666954 -0.007044
2.518856 -0.708042 0.018778
2.554482 -0.751160 0.016328
2.544158 -0.759584 -0.035414
2.504466 -0.716220 -0.034034
2.548124 -0.757478 -0.139110
2.509478 -0.714614 -0.137620
2.504466 -0.716220 -0.034034
2.544158 -0.759584 -0.035414
2.932374 -0.431694 0.037900
2.845752 -0.460874 0.038438
2.848700 -0.466870 -0.065110
2.932476 -0.431656 -0.064742
2.138852 -1.180418 -0.062762
2.087472 -1.131160 -0.058558
2.122412 -1.097356 -0.051954
2.177134 -1.149880 -0.054598
2.122412 -1.098930 -0.006868
2.087470 -1.133120 -0.002414
2.138854 -1.182472 -0.003918
2.177134 -1.151444 -0.009808
2.087472 -1.131160 -0.058558
2.122412 -1.098930 -0.006868
2.087470 -1.133120 -0.002414
2.122412 -1.097356 -0.051954
1.711916 -1.185488 -0.098704
1.827282 -1.299010 -0.060128
1.827790 -1.296538 -0.111990
1.712412 -1.187610 -0.060048
1.864892 -1.249510 -0.060250
1.711916 -1.185488 -0.098704
1.865812 -1.247522 -0.110496
1.712412 -1.187610 -0.060048
1.824208 -1.295148 -0.014528
1.723764 -1.169160 0.028668
1.824512 -1.297316 0.037370
1.724216 -1.167930 -0.007092
1.723764 -1.169160 0.028668
1.867600 -1.251260 -0.011860
1.868700 -1.253910 0.038320
1.724216 -1.167930 -0.007092
2.122412 -1.097356 -0.051954
2.122412 -1.098930 -0.006868
2.177134 -1.151444 -0.009808
2.177134 -1.149880 -0.054598
2.144738 -1.172506 0.048512
2.102600 -1.126914 -0.098120
2.102564 -1.130774 0.050866
2.144738 -1.168672 -0.100462
2.518856 -0.708042 0.018778
2.501448 -0.725502 0.121074
2.540038 -0.768254 0.119584
2.554482 -0.751160 0.016328
2.102564 -1.130774 0.050866
2.144738 -1.172506 0.048512
2.540038 -0.768254 0.119584
2.501448 -0.725502 0.121074
2.102600 -1.126914 -0.098120
2.548124 -0.757478 -0.139110
2.509478 -0.714614 -0.137620
2.144738 -1.168672 -0.100462
2.083444 -1.132418 0.044394
2.044304 -1.171898 0.047756
2.137714 -1.186100 0.048538
1.997516 -1.304790 0.050116
1.979216 -1.232756 0.052866
1.868700 -1.253910 0.038320
1.824512 -1.297316 0.037370
1.723764 -1.169160 0.028668
1.711916 -1.185488 -0.098704
1.865812 -1.247522 -0.110496
1.827790 -1.296538 -0.111990
1.997516 -1.297942 -0.125620
1.979200 -1.225900 -0.123118
2.040006 -1.169672 -0.113154
2.137718 -1.180086 -0.106708
2.083468 -1.126376 -0.105958
1.845420 -1.041966 -0.075872
1.845878 -1.042340 -0.017246
1.954018 -1.083850 -0.086066
1.953252 -1.088866 0.006240
2.040006 -1.169672 -0.113154
2.044304 -1.171898 0.047756
1.845878 -1.042340 -0.017246
1.959504 -1.045854 0.004846
1.953252 -1.088866 0.006240
2.083444 -1.132418 0.044394
2.044304 -1.171898 0.047756
3.108706 -0.252616 -0.021562
3.081924 -0.280318 0.060048
3.081902 -0.280328 -0.103748
3.034558 -0.329334 -0.127522
3.034480 -0.329364 0.085052
2.932476 -0.431656 -0.064742
2.932374 -0.431694 0.037900
2.929494 -0.305684 -0.103270
2.933648 -0.323816 -0.021628
2.954438 -0.333828 -0.108228
2.929550 -0.305856 0.059708
2.954332 -0.334026 0.061174
2.083468 -1.126376 -0.105958
1.954018 -1.083850 -0.086066
2.040006 -1.169672 -0.113154
1.959538 -1.041822 -0.081384
1.845420 -1.041966 -0.075872
2.137714 -1.186100 0.048538
2.138854 -1.182472 -0.003918
2.083444 -1.132418 0.044394
2.087470 -1.133120 -0.002414
1.959504 -1.045854 0.004846
2.087472 -1.131160 -0.058558
1.959538 -1.041822 -0.081384
1.845878 -1.042340 -0.017246
1.845420 -1.041966 -0.075872
2.083468 -1.126376 -0.105958
2.137718 -1.180086 -0.106708
2.138852 -1.180418 -0.062762
1.865812 -1.247522 -0.110496
1.979200 -1.225900 -0.123118
1.864892 -1.249510 -0.060250
1.867600 -1.251260 -0.011860
1.979216 -1.232756 0.052866
1.868700 -1.253910 0.038320
2.040006 -1.169672 -0.113154
2.044304 -1.171898 0.047756
1.824208 -1.295148 -0.014528
1.867600 -1.251260 -0.011860
1.864892 -1.249510 -0.060250
1.827282 -1.299010 -0.060128
1.997516 -1.304790 0.050116
1.824512 -1.297316 0.037370
1.997516 -1.297942 -0.125620
1.827790 -1.296538 -0.111990
2.138854 -1.182472 -0.003918
2.137714 -1.186100 0.048538
2.138852 -1.180418 -0.062762
2.137718 -1.180086 -0.106708
2.177134 -1.149880 -0.054598
2.177134 -1.151444 -0.009808
2.544158 -0.759584 -0.035414
2.144738 -1.168672 -0.100462
2.548124 -0.757478 -0.139110
2.144738 -1.172506 0.048512
2.554482 -0.751160 0.016328
2.540038 -0.768254 0.119584
2.589322 -0.666954 -0.007044
2.509478 -0.714614 -0.137620
2.504466 -0.716220 -0.034034
2.102600 -1.126914 -0.098120
2.102564 -1.130774 0.050866
2.518856 -0.708042 0.018778
2.501448 -0.725502 0.121074
2.589322 -0.666954 -0.007044
2.845752 -0.460874 0.038438
2.704786 -0.605078 0.051708
2.848700 -0.466870 -0.065110
2.694932 -0.615992 -0.060852
2.594706 -0.722986 0.078218
2.645234 -0.668818 0.101628
2.594710 -0.722980 -0.078820
2.573618 -0.743948 -0.000296
2.645910 -0.671902 -0.102158
2.975262 -0.257870 0.085140
2.929550 -0.305856 0.059708
3.023678 -0.209526 0.060110
2.929494 -0.305684 -0.103270
3.023670 -0.209546 -0.103808
3.051038 -0.182292 -0.021562
2.975282 -0.257836 -0.127634
2.538452 -0.662928 0.078216
2.519994 -0.688164 -0.000296
2.540966 -0.667050 -0.078808
2.650504 -0.567282 0.052024
2.592262 -0.615768 0.101578
2.650412 -0.567274 -0.060800
2.592070 -0.615878 -0.102144
2.807710 -0.418742 -0.010130
2.808616 -0.419776 -0.064820
2.808612 -0.419802 0.037972
2.876346 -0.369314 -0.010080
2.892818 -0.385358 -0.065394
2.892714 -0.385456 0.038508
2.933648 -0.323816 -0.021628
2.954438 -0.333828 -0.108228
2.954332 -0.334026 0.061174
2.929494 -0.305684 -0.103270
2.975282 -0.257836 -0.127634
2.954438 -0.333828 -0.108228
3.034558 -0.329334 -0.127522
3.081902 -0.280328 -0.103748
2.932476 -0.431656 -0.064742
3.023670 -0.209546 -0.103808
2.892818 -0.385358 -0.065394
3.108706 -0.252616 -0.021562
2.848700 -0.466870 -0.065110
3.051038 -0.182292 -0.021562
2.808616 -0.419776 -0.064820
3.023678 -0.209526 0.060110
2.650412 -0.567274 -0.060800
3.081924 -0.280318 0.060048
2.694932 -0.615992 -0.060852
2.975262 -0.257870 0.085140
2.592070 -0.615878 -0.102144
3.034480 -0.329364 0.085052
2.645910 -0.671902 -0.102158
2.954332 -0.334026 0.061174
2.540966 -0.667050 -0.078808
2.929550 -0.305856 0.059708
2.594710 -0.722980 -0.078820
2.932374 -0.431694 0.037900
2.519994 -0.688164 -0.000296
2.892714 -0.385456 0.038508
2.573618 -0.743948 -0.000296
2.845752 -0.460874 0.038438
2.594706 -0.722986 0.078218
2.808612 -0.419802 0.037972
2.538452 -0.662928 0.078216
2.704786 -0.605078 0.051708
2.645234 -0.668818 0.101628
2.650504 -0.567282 0.052024
2.592262 -0.615768 0.101578
3 0 1 2
3 3 4 5
3 6 7 8
3 6 9 10
3 11 12 13
3 14 11 13
3 15 16 17
3 18 15 17
3 19 20 21
3 22 19 21
3 23 24 25
3 26 23 25
3 27 28 29
3 30 28 27
3 31 32 33
3 34 32 31
3 35 36 37
3 38 36 35
3 39 40 41
3 42 40 39
3 43 44 45
3 46 44 43
3 47 48 49
3 50 47 49
3 51 52 53
3 54 52 51
3 55 56 57
3 58 55 57
3 59 60 61
3 62 59 61
3 63 64 65
3 66 64 63
3 67 68 69
3 70 69 68
3 71 70 68
3 71 72 70
3 72 73 70
3 74 73 72
3 75 76 77
3 77 76 78
3 76 79 78
3 78 79 80
3 81 78 80
3 82 81 80
3 83 84 85
3 85 84 86
3 85 86 87
3 87 86 88
3 89 90 91
3 90 92 91
3 91 92 93
3 94 95 96
3 96 95 97
3 95 98 97
3 99 97 98
3 100 99 98
3 101 102 103
3 104 102 101
3 104 105 102
3 106 107 108
3 109 107 106
3 110 107 109
3 111 112 113
3 112 114 113
3 115 113 114
3 115 114 116
3 117 115 116
3 118 115 117
3 119 118 117
3 120 117 116
3 121 120 116
3 122 121 116
3 123 124 125
3 125 124 126
3 126 124 127
3 126 127 128
3 124 129 127
3 127 129 130
3 131 132 133
3 134 131 133
3 135 131 134
3 136 131 135
3 137 135 134
3 138 137 134
3 135 137 139
3 140 135 139
3 137 141 139
3 142 141 137
3 139 141 143
3 144 139 143
3 145 146 147
3 148 146 145
3 149 148 145
3 150 148 149
3 151 149 145
3 152 153 154
3 153 155 154
3 156 155 153
3 156 157 155
3 158 156 153
3 159 160 161
3 160 162 161
3 160 163 162
3 163 160 164
3 163 165 162
3 163 166 165
3 167 162 165
3 168 169 170
3 169 171 170
3 170 171 172
3 170 172 173
3 171 174 172
3 175 176 177
3 175 177 178
3 175 178 179
3 178 177 180
3 177 181 180
3 182 178 180
3 183 182 180
3 182 184 178
3 183 185 182
3 185 184 182
3 186 185 183
3 187 184 185
3 186 188 185
3 188 187 185
3 189 188 186
3 190 187 188
3 191 192 193
3 192 194 193
3 195 194 192
3 193 194 196
3 197 195 192
3 198 193 196
3 199 195 197
3 196 200 198
3 201 199 197
3 200 202 198
3 199 201 203
3 202 200 204
3 205 199 203
3 200 206 204
3 205 203 207
3 208 204 206
3 209 205 207
3 210 208 206
3 209 207 211
3 212 208 210
3 207 213 211
3 214 212 210
3 215 209 211
3 216 212 214
3 217 215 211
3 218 216 214
3 219 215 217
3 218 220 216
3 221 219 217
3 220 222 216
3 223 219 221
3 220 224 222
3 225 223 221
3 223 225 224
3 224 226 222
3 225 226 224
