ply
format ascii 1.0
comment Created by Blender 2.76 (sub 0) - www.blender.org, source file: ''
element vertex 227
property float x
property float y
property float z
element face 164
property list uchar uint vertex_indices
end_header
1.824208 1.295148 -0.014528
1.724216 1.167932 -0.007092
1.867600 1.251260 -0.011860
1.864892 1.249510 -0.060250
1.712412 1.187612 -0.060048
1.827282 1.299010 -0.060128
2.514778 0.706688 -0.034034
2.554470 0.749474 -0.035414
2.589322 0.666954 -0.007044
2.554482 0.751162 0.016328
2.518856 0.708042 0.018778
2.848700 0.466870 -0.065110
2.845752 0.460874 0.038438
2.932374 0.431694 0.037900
2.932476 0.431656 -0.064742
2.138852 1.180418 -0.062762
2.177134 1.149882 -0.054598
2.122412 1.097356 -0.051954
2.087472 1.131160 -0.058558
2.138854 1.182472 -0.003918
2.087470 1.133120 -0.002414
2.122412 1.098930 -0.006868
2.177134 1.151446 -0.009808
2.087472 1.131160 -0.058558
2.122412 1.098930 -0.006868
2.122412 1.097356 -0.051954
2.087470 1.133120 -0.002414
1.827282 1.299010 -0.060128
1.711916 1.185490 -0.098704
1.827790 1.296538 -0.111990
1.712412 1.187612 -0.060048
1.864892 1.249510 -0.060250
1.711916 1.185490 -0.098704
1.712412 1.187612 -0.060048
1.865812 1.247522 -0.110496
1.824208 1.295148 -0.014528
1.723764 1.169160 0.028668
1.724216 1.167932 -0.007092
1.824512 1.297318 0.037370
1.867600 1.251260 -0.011860
1.723764 1.169160 0.028668
1.868700 1.253910 0.038320
1.724216 1.167932 -0.007092
2.122412 1.097356 -0.051954
2.177134 1.149882 -0.054598
2.177134 1.151446 -0.009808
2.122412 1.098930 -0.006868
2.144738 1.172506 0.048512
2.102600 1.126914 -0.098120
2.144738 1.168672 -0.100462
2.102564 1.130774 0.050866
2.514778 0.706688 -0.034034
2.509478 0.714614 -0.137620
2.548124 0.757478 -0.139110
2.554470 0.749474 -0.035414
2.518856 0.708042 0.018778
2.554482 0.751162 0.016328
2.540038 0.768254 0.119584
2.501448 0.725502 0.121074
2.540038 0.768254 0.119584
2.144738 1.172506 0.048512
2.102564 1.130774 0.050866
2.501448 0.725502 0.121074
2.102600 1.126914 -0.098120
2.548124 0.757478 -0.139110
2.144738 1.168672 -0.100462
2.509478 0.714614 -0.137620
2.137714 1.186100 0.048538
2.083444 1.132420 0.044394
2.138854 1.182472 -0.003918
2.087470 1.133120 -0.002414
1.959504 1.045854 0.004846
2.087472 1.131160 -0.058558
1.959538 1.041822 -0.081384
1.845878 1.042340 -0.017246
1.845420 1.041966 -0.075872
2.083468 1.126376 -0.105958
2.137718 1.180086 -0.106708
2.138852 1.180418 -0.062762
2.954332 0.334028 0.061174
2.929550 0.305856 0.059708
2.933648 0.323816 -0.021628
2.929494 0.305684 -0.103270
2.954438 0.333828 -0.108228
2.932476 0.431656 -0.064742
2.932374 0.431694 0.037900
3.034480 0.329364 0.085052
3.034558 0.329334 -0.127522
3.081924 0.280320 0.060048
3.081902 0.280328 -0.103748
3.108706 0.252616 -0.021562
2.040006 1.169672 -0.113154
2.137718 1.180086 -0.106708
2.083468 1.126376 -0.105958
1.997516 1.297942 -0.125620
1.979200 1.225900 -0.123118
1.865812 1.247522 -0.110496
1.827790 1.296538 -0.111990
1.711916 1.185490 -0.098704
1.959504 1.045854 0.004846
1.845878 1.042340 -0.017246
1.953252 1.088866 0.006240
2.083444 1.132420 0.044394
2.044304 1.171898 0.047756
1.954018 1.083850 -0.086066
1.845878 1.042340 -0.017246
1.845420 1.041966 -0.075872
1.953252 1.088866 0.006240
2.040006 1.169672 -0.113154
2.044304 1.171898 0.047756
1.954018 1.083850 -0.086066
1.845420 1.041966 -0.075872
1.959538 1.041822 -0.081384
2.083468 1.126376 -0.105958
2.040006 1.169672 -0.113154
1.868700 1.253910 0.038320
1.824512 1.297318 0.037370
1.723764 1.169160 0.028668
1.997516 1.304792 0.050116
1.979216 1.232758 0.052866
2.044304 1.171898 0.047756
2.137714 1.186100 0.048538
2.083444 1.132420 0.044394
2.929550 0.305856 0.059708
2.975262 0.257870 0.085140
3.023678 0.209528 0.060110
2.929494 0.305684 -0.103270
3.023670 0.209548 -0.103808
3.051038 0.182292 -0.021562
2.975282 0.257836 -0.127634
2.040006 1.169672 -0.113154
1.979216 1.232758 0.052866
2.044304 1.171898 0.047756
1.979200 1.225900 -0.123118
1.867600 1.251260 -0.011860
1.868700 1.253910 0.038320
1.864892 1.249510 -0.060250
1.865812 1.247522 -0.110496
1.864892 1.249510 -0.060250
1.867600 1.251260 -0.011860
1.824208 1.295148 -0.014528
1.827282 1.299010 -0.060128
1.997516 1.304792 0.050116
1.824512 1.297318 0.037370
1.997516 1.297942 -0.125620
1.827790 1.296538 -0.111990
2.138854 1.182472 -0.003918
2.137714 1.186100 0.048538
2.138852 1.180418 -0.062762
2.137718 1.180086 -0.106708
2.177134 1.149882 -0.054598
2.177134 1.151446 -0.009808
2.548124 0.757478 -0.139110
2.144738 1.168672 -0.100462
2.554470 0.749474 -0.035414
2.144738 1.172506 0.048512
2.554482 0.751162 0.016328
2.540038 0.768254 0.119584
2.589322 0.666954 -0.007044
2.514778 0.706688 -0.034034
2.509478 0.714614 -0.137620
2.102600 1.126914 -0.098120
2.102564 1.130774 0.050866
2.518856 0.708042 0.018778
2.589322 0.666954 -0.007044
2.501448 0.725502 0.121074
2.704786 0.605078 0.051708
2.845752 0.460874 0.038438
2.848700 0.466870 -0.065110
2.694932 0.615994 -0.060852
2.594706 0.722986 0.078218
2.645234 0.668820 0.101628
2.594710 0.722980 -0.078820
2.645910 0.671902 -0.102158
2.573618 0.743948 -0.000296
2.892818 0.385358 -0.065394
2.933648 0.323816 -0.021628
2.954438 0.333828 -0.108228
2.876346 0.369316 -0.010080
2.808616 0.419776 -0.064820
2.892714 0.385456 0.038508
2.954332 0.334028 0.061174
2.808612 0.419802 0.037972
2.807710 0.418744 -0.010130
2.650412 0.567274 -0.060800
2.650504 0.567284 0.052024
2.540966 0.667050 -0.078808
2.592070 0.615878 -0.102144
2.538452 0.662928 0.078216
2.519994 0.688164 -0.000296
2.592262 0.615770 0.101578
2.929550 0.305856 0.059708
2.975262 0.257870 0.085140
2.954332 0.334028 0.061174
3.034480 0.329364 0.085052
3.081924 0.280320 0.060048
2.932374 0.431694 0.037900
3.023678 0.209528 0.060110
2.892714 0.385456 0.038508
3.108706 0.252616 -0.021562
2.845752 0.460874 0.038438
3.051038 0.182292 -0.021562
2.808612 0.419802 0.037972
3.023670 0.209548 -0.103808
2.704786 0.605078 0.051708
3.081902 0.280328 -0.103748
2.650504 0.567284 0.052024
2.975282 0.257836 -0.127634
2.645234 0.668820 0.101628
3.034558 0.329334 -0.127522
2.592262 0.615770 0.101578
2.954438 0.333828 -0.108228
2.538452 0.662928 0.078216
2.929494 0.305684 -0.103270
2.594706 0.722986 0.078218
2.932476 0.431656 -0.064742
2.519994 0.688164 -0.000296
2.892818 0.385358 -0.065394
2.573618 0.743948 -0.000296
2.848700 0.466870 -0.065110
2.594710 0.722980 -0.078820
2.808616 0.419776 -0.064820
2.540966 0.667050 -0.078808
2.650412 0.567274 -0.060800
2.645910 0.671902 -0.102158
2.694932 0.615994 -0.060852
2.592070 0.615878 -0.102144
3 0 1 2
3 3 4 5
3 6 7 8
3 9 10 8
3 11 12 13
3 14 11 13
3 15 16 17
3 18 15 17
3 19 20 21
3 22 19 21
3 23 24 25
3 26 24 23
3 27 28 29
3 30 28 27
3 31 32 33
3 34 32 31
3 35 36 37
3 38 36 35
3 39 40 41
3 42 40 39
3 43 44 45
3 46 43 45
3 47 48 49
3 50 48 47
3 51 52 53
3 54 51 53
3 55 56 57
3 58 55 57
3 59 60 61
3 62 59 61
3 63 64 65
3 66 64 63
3 67 68 69
3 68 70 69
3 70 68 71
3 70 71 72
3 71 73 72
3 73 71 74
3 75 73 74
3 72 73 76
3 72 76 77
3 78 72 77
3 79 80 81
3 81 80 82
3 81 82 83
3 84 85 86
3 87 84 86
3 87 86 88
3 89 87 88
3 89 88 90
3 91 92 93
3 92 91 94
3 91 95 94
3 95 96 94
3 96 97 94
3 97 96 98
3 99 100 101
3 99 101 102
3 102 101 103
3 104 105 106
3 107 105 104
3 108 107 104
3 109 107 108
3 110 111 112
3 113 110 112
3 114 110 113
3 115 116 117
3 118 116 115
3 119 118 115
3 118 119 120
3 121 118 120
3 121 120 122
3 123 124 125
3 125 126 123
3 127 126 125
3 127 125 128
3 129 126 127
3 130 131 132
3 133 131 130
3 133 134 131
3 131 134 135
3 136 134 133
3 133 137 136
3 138 139 140
3 141 138 140
3 140 142 141
3 142 140 143
3 142 144 141
3 141 144 145
3 142 146 144
3 146 142 147
3 146 148 144
3 144 148 149
3 148 146 150
3 146 151 150
3 152 153 154
3 153 155 154
3 155 156 154
3 156 155 157
3 154 156 158
3 159 160 161
3 161 162 159
3 159 162 163
3 163 164 159
3 165 163 162
3 166 167 168
3 169 166 168
3 170 166 169
3 171 166 170
3 172 170 169
3 172 169 173
3 172 174 170
3 175 176 177
3 178 176 175
3 179 178 175
3 180 176 178
3 181 176 180
3 180 178 182
3 183 178 179
3 182 178 183
3 183 179 184
3 182 183 185
3 185 183 184
3 186 185 184
3 187 186 184
3 188 185 186
3 189 188 186
3 185 188 190
3 191 192 193
3 192 194 193
3 195 194 192
3 194 196 193
3 197 195 192
3 196 198 193
3 199 195 197
3 198 196 200
3 201 199 197
3 202 198 200
3 201 203 199
3 202 200 204
3 203 205 199
3 206 202 204
3 203 207 205
3 206 204 208
3 207 209 205
3 210 206 208
3 209 207 211
3 212 210 208
3 207 213 211
3 214 212 208
3 209 211 215
3 216 212 214
3 211 217 215
3 218 216 214
3 219 215 217
3 216 218 220
3 221 219 217
3 222 216 220
3 221 223 219
3 222 220 224
3 223 225 219
3 226 222 224
3 223 226 225
3 226 224 225
