ply
format ascii 1.0
comment Created by Blender 2.76 (sub 0) - www.blender.org, source file: ''
element vertex 140
property float x
property float y
property float z
element face 118
property list uchar uint vertex_indices
end_header
3.672306 -0.006982 -0.049358
3.672304 0.006982 -0.049358
3.663642 0.006972 0.129852
3.663642 -0.006970 0.129852
3.320122 0.000000 -0.305336
3.357950 0.031372 -0.347816
3.319094 0.043494 -0.304626
3.362190 0.000000 -0.360344
3.541694 0.037106 -0.152472
3.537094 0.096528 -0.102398
3.684878 0.108136 -0.043716
3.368754 0.060518 -0.305970
3.357950 -0.031372 -0.347816
3.320122 0.000000 -0.305336
3.319094 -0.043494 -0.304626
3.362190 0.000000 -0.360344
3.537094 -0.096528 -0.102398
3.541694 -0.037106 -0.152472
3.684878 -0.108136 -0.043716
3.368754 -0.060518 -0.305970
3.591890 0.000000 0.179340
3.576632 0.000000 0.147562
3.591242 -0.027314 0.180554
3.575720 -0.054632 0.149638
3.641290 0.000000 0.093278
3.672130 -0.098690 0.122772
3.594502 -0.089574 0.177234
3.723502 -0.070196 0.175876
3.465610 -0.063946 0.249448
3.591242 -0.027314 0.180554
3.615054 -0.062902 0.213620
3.728772 0.000000 0.184866
3.616390 0.000000 0.213506
3.591242 -0.027314 0.180554
3.591890 0.000000 0.179340
3.541694 0.037106 -0.152472
3.319094 0.043494 -0.304626
3.368754 0.060518 -0.305970
3.357950 0.031372 -0.347816
3.385846 0.042702 -0.342550
3.392508 0.000000 -0.357872
3.362190 0.000000 -0.360344
3.505204 -0.023610 0.051936
3.505204 0.023610 0.051936
3.663642 -0.006970 0.129852
3.663642 0.006972 0.129852
3.672306 -0.006982 -0.049358
3.672304 0.006982 -0.049358
3.513560 -0.023700 -0.004484
3.513560 0.023702 -0.004484
3.576632 0.000000 0.147562
3.591890 0.000000 0.179340
3.591242 0.027314 0.180554
3.575720 0.054632 0.149638
3.641290 0.000000 0.093278
3.672130 0.098690 0.122772
3.594502 0.089574 0.177234
3.723502 0.070196 0.175876
3.465610 0.063946 0.249448
3.591242 0.027314 0.180554
3.615054 0.062902 0.213620
3.728772 0.000000 0.184866
3.616390 0.000000 0.213506
3.591242 0.027314 0.180554
3.591890 0.000000 0.179340
3.319094 -0.043494 -0.304626
3.541694 -0.037106 -0.152472
3.368754 -0.060518 -0.305970
3.357950 -0.031372 -0.347816
3.385846 -0.042702 -0.342550
3.392508 0.000000 -0.357872
3.362190 0.000000 -0.360344
3.320122 0.000000 -0.305336
3.541694 -0.037106 -0.152472
3.319094 -0.043494 -0.304626
3.541878 0.000000 -0.152316
3.627412 0.000000 -0.019762
3.541694 0.037106 -0.152472
3.684878 -0.108136 -0.043716
3.649136 0.000000 0.026488
3.712026 -0.108008 0.034008
3.672130 -0.098690 0.122772
3.641290 0.000000 0.093278
3.513560 0.023702 -0.004484
3.505204 0.023610 0.051936
3.672304 0.006982 -0.049358
3.663642 0.006972 0.129852
3.649136 0.000000 0.026488
3.672130 0.098690 0.122772
3.641290 0.000000 0.093278
3.712026 0.108008 0.034008
3.684878 0.108136 -0.043716
3.627412 0.000000 -0.019762
3.541694 0.037106 -0.152472
3.541878 0.000000 -0.152316
3.541694 -0.037106 -0.152472
3.320122 0.000000 -0.305336
3.319094 0.043494 -0.304626
3.505204 -0.023610 0.051936
3.513560 -0.023700 -0.004484
3.672306 -0.006982 -0.049358
3.663642 -0.006970 0.129852
3.392508 0.000000 -0.357872
3.385846 0.042702 -0.342550
3.604160 0.000000 -0.264750
3.594128 0.070614 -0.249620
3.368754 0.060518 -0.305970
3.718638 0.000000 -0.198476
3.560048 0.099712 -0.179808
3.537094 0.096528 -0.102398
3.711236 0.077504 -0.178528
3.684878 0.108136 -0.043716
3.802538 0.000000 -0.092872
3.788318 0.076524 -0.079012
3.828172 0.000000 0.042664
3.808238 0.076678 0.043290
3.728772 0.000000 0.184866
3.723502 0.070196 0.175876
3.712026 0.108008 0.034008
3.684878 0.108136 -0.043716
3.672130 0.098690 0.122772
3.385846 -0.042702 -0.342550
3.392508 0.000000 -0.357872
3.604160 0.000000 -0.264750
3.594128 -0.070614 -0.249620
3.718638 0.000000 -0.198476
3.368754 -0.060518 -0.305970
3.711236 -0.077502 -0.178528
3.560048 -0.099712 -0.179808
3.537094 -0.096528 -0.102398
3.802538 0.000000 -0.092872
3.684878 -0.108136 -0.043716
3.788318 -0.076524 -0.079012
3.828172 0.000000 0.042664
3.808238 -0.076678 0.043290
3.728772 0.000000 0.184866
3.723502 -0.070196 0.175876
3.712026 -0.108008 0.034008
3.684878 -0.108136 -0.043716
3.672130 -0.098690 0.122772
3 0 1 2
3 3 0 2
3 4 5 6
3 7 5 4
3 8 9 10
3 11 9 8
3 12 13 14
3 15 13 12
3 16 17 18
3 16 19 17
3 20 21 22
3 21 23 22
3 21 24 23
3 23 24 25
3 26 23 25
3 26 25 27
3 28 23 26
3 23 28 29
3 30 26 27
3 28 30 29
3 28 26 30
3 27 31 30
3 31 32 30
3 33 30 32
3 34 33 32
3 35 36 37
3 36 38 37
3 37 38 39
3 39 38 40
3 40 38 41
3 42 43 44
3 44 43 45
3 46 47 48
3 48 47 49
3 50 51 52
3 53 50 52
3 53 54 50
3 55 54 53
3 55 53 56
3 57 55 56
3 56 53 58
3 59 58 53
3 57 56 60
3 59 60 58
3 60 56 58
3 61 57 60
3 62 61 60
3 60 63 62
3 63 64 62
3 65 66 67
3 65 67 68
3 68 67 69
3 70 68 69
3 71 68 70
3 72 73 74
3 75 73 72
3 76 73 75
3 76 75 77
3 78 73 76
3 79 78 76
3 80 78 79
3 79 81 80
3 82 81 79
3 83 84 85
3 84 86 85
3 87 88 89
3 90 88 87
3 90 87 91
3 91 87 92
3 93 91 92
3 93 92 94
3 94 92 95
3 96 93 94
3 97 93 96
3 98 99 100
3 101 98 100
3 102 103 104
3 103 105 104
3 103 106 105
3 104 105 107
3 106 108 105
3 106 109 108
3 105 110 107
3 105 108 110
3 108 109 111
3 110 108 111
3 107 110 112
3 110 111 113
3 110 113 112
3 112 113 114
3 113 115 114
3 114 115 116
3 115 117 116
3 115 113 118
3 115 118 117
3 113 119 118
3 118 120 117
3 121 122 123
3 124 121 123
3 124 123 125
3 126 121 124
3 127 124 125
3 128 126 124
3 127 128 124
3 128 129 126
3 127 125 130
3 131 129 128
3 131 128 127
3 132 127 130
3 132 131 127
3 132 130 133
3 134 132 133
3 134 133 135
3 136 134 135
3 134 137 132
3 137 134 136
3 137 138 132
3 139 137 136
