ply
format ascii 1.0
comment Created by Blender 2.76 (sub 0) - www.blender.org, source file: ''
element vertex 333
property float x
property float y
property float z
element face 282
property list uchar uint vertex_indices
end_header
2.973440 -0.002520 0.018058
2.971258 0.006290 0.028480
2.970842 -0.007880 0.041548
3.956312 0.149310 0.334424
3.948514 0.185976 0.365604
3.948466 0.149070 0.396388
2.471570 -0.103938 -0.245204
2.348962 0.000000 -0.009074
2.348482 -0.104258 -0.009288
2.472466 0.000000 -0.244634
2.893696 -0.167688 0.172324
2.511288 -0.201724 0.124774
2.726584 -0.212692 -0.298886
2.946236 -0.193704 -0.219546
2.348482 -0.104258 -0.009288
2.523758 0.000000 0.072626
2.524618 -0.150412 0.073136
2.348962 0.000000 -0.009074
2.704602 0.000000 -0.263328
2.705396 -0.156902 -0.264418
2.471570 -0.103938 -0.245204
2.472466 0.000000 -0.244634
2.471570 -0.103938 -0.245204
2.524618 -0.150412 0.073136
2.705396 -0.156902 -0.264418
2.348482 -0.104258 -0.009288
2.763842 0.179246 0.156176
2.862298 -0.000568 -0.025998
2.799594 0.206380 -0.272514
2.830838 0.000000 0.163246
2.862298 -0.000568 -0.025998
2.893696 -0.167688 0.172324
2.946236 -0.193704 -0.219546
2.874534 0.000000 -0.243900
2.946236 -0.193704 -0.219546
2.799594 0.206380 -0.272514
2.962814 -0.023278 -0.021512
2.970076 0.023278 -0.072494
2.962814 0.023278 -0.021512
2.970076 -0.023278 -0.072494
2.799594 0.206380 -0.272514
2.763842 0.179246 0.156176
2.849912 -0.000586 -0.025832
2.874534 0.000000 -0.243900
2.849912 -0.000586 -0.025832
2.946236 -0.193704 -0.219546
2.893696 -0.167688 0.172324
2.830838 0.000000 0.163246
2.893696 -0.167688 0.172324
2.849912 -0.000586 -0.025832
2.763842 0.179246 0.156176
2.608008 -0.182630 0.411248
2.877944 -0.193758 0.406726
2.733464 0.187774 0.409182
2.608008 0.182638 0.411246
2.607870 0.182662 0.214422
2.733464 0.187774 0.409182
2.754710 0.188660 0.208118
2.524618 0.150412 0.073136
2.471570 0.103938 -0.245204
2.705396 0.156902 -0.264418
2.348482 0.104258 -0.009288
2.704602 0.000000 -0.263328
2.472466 0.000000 -0.244634
2.471570 0.103938 -0.245204
2.705396 0.156902 -0.264418
2.523758 0.000000 0.072626
2.348482 0.104258 -0.009288
2.524618 0.150412 0.073136
2.348962 0.000000 -0.009074
2.726584 0.212692 -0.298886
2.511288 0.201724 0.124774
2.763842 0.179246 0.156176
2.799594 0.206380 -0.272514
2.348962 0.000000 -0.009074
2.471570 0.103938 -0.245204
2.348482 0.104258 -0.009288
2.472466 0.000000 -0.244634
2.607870 -0.182658 0.214424
2.900250 -0.194604 0.201870
2.877944 -0.193758 0.406726
2.608008 -0.182630 0.411248
2.608008 -0.182630 0.411248
2.607870 0.182662 0.214422
2.608008 0.182638 0.411246
2.607870 -0.182658 0.214424
2.607870 -0.182658 0.214424
2.754710 0.188660 0.208118
2.607870 0.182662 0.214422
2.900250 -0.194604 0.201870
2.704602 0.000000 -0.263328
2.726744 0.000000 -0.297664
2.705396 0.156902 -0.264418
2.726584 0.212692 -0.298886
2.524618 0.150412 0.073136
2.511288 0.201724 0.124774
2.512090 0.000000 0.123926
2.523758 0.000000 0.072626
2.524618 -0.150412 0.073136
2.511288 -0.201724 0.124774
2.726584 -0.212692 -0.298886
2.705396 -0.156902 -0.264418
2.726744 0.000000 -0.297664
2.704602 0.000000 -0.263328
2.511288 0.201724 0.124774
2.763842 0.179246 0.156176
2.512090 0.000000 0.123926
2.830838 0.000000 0.163246
2.511288 -0.201724 0.124774
2.893696 -0.167688 0.172324
2.962814 -0.023278 -0.021512
2.962814 0.023278 -0.021512
3.505204 -0.023610 0.051936
3.505204 0.023610 0.051936
3.513560 -0.023700 -0.004484
3.513560 0.023702 -0.004484
2.970076 -0.023278 -0.072494
2.970076 0.023278 -0.072494
3.132198 0.167464 0.246912
3.080982 0.201990 0.194110
3.132122 0.167570 0.348844
3.081046 0.202008 0.403462
2.754710 0.188660 0.208118
2.733464 0.187774 0.409182
2.733464 0.187774 0.409182
2.877944 -0.193758 0.406726
3.081092 -0.202132 0.403322
3.132138 -0.167332 0.355826
3.132122 0.167570 0.348844
3.132194 -0.167464 0.246910
3.132198 0.167464 0.246912
3.080976 -0.201988 0.194112
3.080982 0.201990 0.194110
2.900250 -0.194604 0.201870
2.754710 0.188660 0.208118
2.726744 0.000000 -0.297664
2.726584 0.212692 -0.298886
2.799594 0.206380 -0.272514
2.874534 0.000000 -0.243900
2.726584 -0.212692 -0.298886
2.946236 -0.193704 -0.219546
2.946236 0.193704 -0.219544
2.799594 0.206380 -0.272514
2.763842 0.179246 0.156176
2.893696 0.167688 0.172324
3.055640 0.169838 -0.142820
3.054972 0.149334 0.108634
3.107236 0.156746 -0.034020
2.254212 0.025062 -0.213108
2.487102 0.025902 -0.201586
2.487102 -0.025902 -0.201586
2.254212 -0.025062 -0.213108
2.091254 0.036902 -0.177312
2.091254 -0.036902 -0.177312
1.930506 0.046618 -0.181758
1.930506 -0.046618 -0.181758
2.118638 0.121516 -0.124326
1.837562 0.046602 -0.031420
1.837562 -0.046602 -0.031420
2.168754 0.036338 -0.077096
1.944978 0.046640 0.115548
2.083144 0.044906 0.108850
1.837562 0.046602 -0.031420
1.944978 -0.046640 0.115548
1.837562 -0.046602 -0.031420
1.837562 0.046602 -0.031420
2.083144 -0.044906 0.108850
2.266928 0.026716 -0.062944
2.266928 -0.026716 -0.062944
2.459248 0.026496 -0.095532
2.459248 -0.026496 -0.095532
3.055640 -0.169838 -0.142820
3.107236 -0.156746 -0.034020
3.054972 -0.149334 0.108634
2.893696 -0.167688 0.172324
2.946236 -0.193704 -0.219546
2.733464 0.187774 0.409182
2.823988 -0.001204 0.306724
2.754710 0.188660 0.208118
2.877944 -0.193758 0.406726
2.877944 -0.193758 0.406726
2.900250 -0.194604 0.201870
2.754710 0.188660 0.208118
2.970076 0.023278 -0.072494
2.962814 0.023278 -0.021512
3.505204 0.023610 0.051936
3.513560 0.023702 -0.004484
2.877944 -0.193758 0.406726
2.900250 -0.194604 0.201870
2.811078 -0.001204 0.306724
2.733464 0.187774 0.409182
2.733464 0.187774 0.409182
2.754710 0.188660 0.208118
2.900250 -0.194604 0.201870
2.962814 -0.023278 -0.021512
2.970076 -0.023278 -0.072494
3.505204 -0.023610 0.051936
3.513560 -0.023700 -0.004484
3.132138 -0.167332 0.355826
3.081092 -0.202132 0.403322
3.132194 -0.167464 0.246910
3.080976 -0.201988 0.194112
2.900250 -0.194604 0.201870
2.877944 -0.193758 0.406726
2.254212 -0.025062 -0.213108
2.487102 -0.025902 -0.201586
2.459248 -0.026496 -0.095532
2.266928 -0.026716 -0.062944
2.168754 -0.036338 -0.077096
2.083144 -0.044906 0.108850
2.091254 -0.036902 -0.177312
2.487102 0.025902 -0.201586
2.254212 0.025062 -0.213108
2.459248 0.026496 -0.095532
2.266928 0.026716 -0.062944
2.168754 0.036338 -0.077096
2.091254 0.036902 -0.177312
2.083144 0.044906 0.108850
1.837562 -0.046602 -0.031420
1.930506 -0.046618 -0.181758
1.944978 -0.046640 0.115548
2.118638 -0.121516 -0.124326
2.083144 -0.044906 0.108850
2.091254 -0.036902 -0.177312
2.168754 -0.036338 -0.077096
2.874534 0.000000 -0.243900
2.799594 0.206380 -0.272514
2.946236 0.193704 -0.219544
2.945800 0.000000 -0.217976
2.946236 -0.193704 -0.219546
3.055640 0.169838 -0.142820
3.055640 -0.169838 -0.142820
3.054986 0.000000 -0.141986
3.107236 0.156746 -0.034020
3.107236 -0.156746 -0.034020
3.106090 0.000000 -0.034178
3.054972 0.149334 0.108634
3.054972 -0.149334 0.108634
3.054332 0.000000 0.107686
2.893696 0.167688 0.172324
2.763842 0.179246 0.156176
2.830838 0.000000 0.163246
2.893796 0.000000 0.171012
3.054972 0.149334 0.108634
2.893696 -0.167688 0.172324
3.054332 0.000000 0.107686
3.054972 -0.149334 0.108634
3.658098 -0.007696 0.118494
2.970842 -0.007880 0.041548
3.658292 0.001142 0.105248
3.658342 -0.002332 0.094046
2.971258 0.006290 0.028480
2.973440 -0.002520 0.018058
3.963484 0.173184 0.367106
3.068532 0.175666 0.347556
3.962794 0.157150 0.380162
3.961576 0.157246 0.354226
3.067976 0.163952 0.356952
3.067110 0.163770 0.337878
3.948514 0.185976 0.365604
3.948466 0.149070 0.396388
4.055758 0.153020 0.400302
3.956312 0.149310 0.334424
4.055566 0.189944 0.369522
4.063602 0.153260 0.338366
2.567296 -0.143184 0.004458
2.504322 -0.130388 0.028276
2.486110 -0.202276 -0.017666
2.529540 -0.130346 -0.046598
2.468376 -0.175706 -0.001042
2.481528 -0.175150 -0.041642
2.477186 -0.132502 -0.029676
2.254402 -0.150848 -0.111646
2.457018 -0.156972 -0.030380
2.257114 -0.127418 -0.081402
2.274488 -0.129654 -0.125164
2.220448 -0.021330 -0.068930
2.280932 -0.113138 -0.098724
2.171450 -0.016986 -0.117372
2.265886 -0.025154 -0.117118
2.221120 -0.019850 -0.170554
2.567296 0.143184 0.004458
2.486110 0.202276 -0.017666
2.504322 0.130388 0.028276
2.529540 0.130346 -0.046598
2.468376 0.175706 -0.001042
2.481528 0.175150 -0.041642
2.477186 0.132502 -0.029676
2.254402 0.150848 -0.111646
2.457018 0.156972 -0.030380
2.257114 0.127418 -0.081402
2.274488 0.129654 -0.125164
2.220448 0.021330 -0.068930
2.280932 0.113138 -0.098724
2.171450 0.016986 -0.117372
2.265886 0.025154 -0.117118
2.221120 0.019850 -0.170554
3.049352 0.146516 -0.024748
3.006238 0.144268 -0.096404
3.047028 0.228270 -0.020126
2.981034 0.139364 0.020188
3.002582 0.237592 -0.092744
2.977866 0.232760 0.025928
2.935376 0.235974 -0.046668
2.986382 0.269600 -0.031804
2.937344 0.137168 -0.051536
1.975182 0.000000 -0.129204
1.889968 0.000000 -0.033172
1.975172 0.139230 -0.122992
2.057572 0.000000 -0.033172
1.894434 0.139272 -0.033172
2.053118 0.139240 -0.033172
1.975172 0.139230 0.056650
1.975170 0.180948 -0.033172
1.975182 0.000000 0.062860
1.975172 -0.139230 -0.122992
1.975182 0.000000 -0.129204
2.057572 0.000000 -0.033172
1.889968 0.000000 -0.033172
2.053118 -0.139240 -0.033172
1.894434 -0.139272 -0.033172
1.975172 -0.139230 0.056650
1.975170 -0.180948 -0.033172
1.975182 0.000000 0.062860
2.935376 -0.235974 -0.046668
2.937344 -0.137168 -0.051536
3.006238 -0.144268 -0.096404
2.981034 -0.139364 0.020188
3.002582 -0.237592 -0.092744
2.977866 -0.232760 0.025928
3.047028 -0.228270 -0.020126
2.986382 -0.269600 -0.031804
3.049352 -0.146516 -0.024748
3 0 1 2
3 3 4 5
3 6 7 8
3 9 7 6
3 10 11 12
3 13 10 12
3 14 15 16
3 17 15 14
3 18 19 20
3 21 18 20
3 22 23 24
3 25 23 22
3 26 27 28
3 29 27 26
3 30 29 31
3 32 30 31
3 33 30 34
3 35 30 33
3 36 37 38
3 39 37 36
3 40 41 42
3 43 40 42
3 43 44 45
3 44 46 45
3 47 48 49
3 50 47 49
3 51 52 53
3 54 51 53
3 55 54 56
3 57 55 56
3 58 59 60
3 61 59 58
3 62 63 64
3 65 62 64
3 66 67 68
3 69 67 66
3 70 71 72
3 73 70 72
3 74 75 76
3 77 75 74
3 78 79 80
3 81 78 80
3 82 83 84
3 85 83 82
3 86 87 88
3 89 87 86
3 90 91 92
3 92 91 93
3 92 93 94
3 94 93 95
3 96 94 95
3 97 94 96
3 97 96 98
3 98 96 99
3 100 98 99
3 101 98 100
3 102 101 100
3 103 101 102
3 104 105 106
3 106 105 107
3 106 107 108
3 108 107 109
3 110 111 112
3 112 111 113
3 114 115 116
3 116 115 117
3 118 119 120
3 119 121 120
3 119 122 121
3 122 123 121
3 121 124 125
3 126 121 125
3 121 126 127
3 128 121 127
3 127 129 128
3 129 130 128
3 129 131 130
3 131 132 130
3 131 133 132
3 133 134 132
3 135 136 137
3 138 135 137
3 139 135 138
3 140 139 138
3 141 142 143
3 144 141 143
3 145 141 144
3 144 146 145
3 146 147 145
3 148 149 150
3 151 148 150
3 152 148 151
3 153 152 151
3 154 152 153
3 155 154 153
3 152 154 156
3 157 154 155
3 158 157 155
3 152 156 159
3 154 160 156
3 156 161 159
3 162 160 154
3 156 160 161
3 161 160 163
3 163 160 164
3 160 165 164
3 166 161 163
3 167 161 166
3 168 167 166
3 169 167 168
3 170 169 168
3 171 172 173
3 174 171 173
3 174 175 171
3 176 177 178
3 176 179 177
3 177 180 181
3 182 177 181
3 183 184 185
3 186 183 185
3 187 188 189
3 190 187 189
3 191 189 192
3 189 193 192
3 194 195 196
3 195 197 196
3 198 199 200
3 199 201 200
3 201 199 202
3 199 203 202
3 204 205 206
3 207 204 206
3 207 208 204
3 208 207 209
3 208 210 204
3 211 212 213
3 212 214 213
3 212 215 214
3 216 215 212
3 215 217 214
3 218 219 220
3 221 220 219
3 220 221 222
3 219 223 221
3 221 224 222
3 221 223 224
3 225 226 227
3 228 225 227
3 228 229 225
3 228 227 230
3 231 229 228
3 232 228 230
3 232 231 228
3 232 230 233
3 234 231 232
3 235 232 233
3 235 234 232
3 235 233 236
3 237 234 235
3 238 235 236
3 238 237 235
3 239 240 241
3 242 239 241
3 243 239 242
3 241 244 242
3 245 243 242
3 244 246 242
3 246 245 242
3 247 248 249
3 247 250 248
3 249 248 251
3 249 251 250
3 248 250 252
3 250 251 252
3 253 254 255
3 253 256 254
3 254 257 255
3 255 257 256
3 256 258 254
3 257 258 256
3 259 260 261
3 261 260 262
3 263 259 261
3 262 259 263
3 264 261 262
3 264 262 263
3 264 263 261
3 265 266 267
3 265 267 268
3 266 269 267
3 267 270 268
3 266 271 269
3 268 270 271
3 267 269 272
3 267 272 270
3 271 273 269
3 270 273 271
3 269 274 272
3 269 273 274
3 272 275 270
3 270 275 273
3 274 276 272
3 275 277 273
3 273 277 274
3 276 278 272
3 277 279 274
3 279 276 274
3 277 275 279
3 272 278 280
3 275 280 279
3 275 272 280
3 281 282 283
3 282 281 284
3 282 285 283
3 286 282 284
3 283 285 287
3 286 284 287
3 282 288 285
3 288 282 286
3 285 289 287
3 289 286 287
3 288 290 285
3 285 290 289
3 291 288 286
3 291 286 289
3 292 290 288
3 293 291 289
3 290 293 289
3 294 292 288
3 295 293 290
3 292 295 290
3 293 295 291
3 296 294 288
3 295 296 291
3 291 296 288
3 297 298 299
3 300 297 299
3 298 301 299
3 302 300 299
3 301 298 303
3 300 302 303
3 299 301 304
3 302 299 304
3 301 303 304
3 303 302 304
3 305 300 303
3 298 305 303
3 306 307 308
3 309 306 308
3 307 310 308
3 311 309 308
3 310 307 312
3 309 311 312
3 308 310 313
3 311 308 313
3 310 312 313
3 314 309 312
3 307 314 312
3 315 316 317
3 318 316 315
3 319 315 317
3 320 318 315
3 319 317 321
3 320 321 318
3 322 315 319
3 322 320 315
3 322 319 321
3 322 321 320
3 321 323 318
3 317 323 321
3 324 325 326
3 327 325 324
3 328 324 326
3 329 327 324
3 328 326 330
3 329 330 327
3 331 324 328
3 331 329 324
3 331 328 330
3 331 330 329
3 330 332 327
3 326 332 330
