ply
format ascii 1.0
comment Created by Blender 2.76 (sub 0) - www.blender.org, source file: ''
element vertex 195
property float x
property float y
property float z
element face 166
property list uchar uint vertex_indices
end_header
1.517560 0.160292 0.075892
1.660582 0.132248 -0.170400
1.564302 0.160058 -0.173206
1.634698 0.132216 0.102764
1.791732 0.138980 -0.159696
1.660582 0.132248 -0.170400
1.791620 0.228550 -0.159684
1.608284 0.235154 -0.185194
1.564302 0.160058 -0.173206
1.247250 0.224550 -0.134278
1.247394 0.166060 -0.134234
1.256598 0.166108 0.028846
1.517560 0.160292 0.075892
1.266758 0.162620 -0.065132
1.564302 0.160058 -0.173206
1.247394 0.166060 -0.134234
1.256598 0.166108 0.028846
1.517560 0.160292 0.075892
1.256298 0.224442 0.028892
1.560472 0.235204 0.101070
1.634698 0.132216 0.102764
1.802604 0.228520 0.101688
1.802642 0.138928 0.101696
1.294534 0.194066 -0.020678
1.289356 0.209152 -0.069538
1.195366 0.196962 -0.032234
1.190500 0.196976 -0.103598
1.286812 0.194066 -0.124194
0.352616 0.195044 0.098340
0.320708 0.218528 0.035674
0.215254 0.193902 0.118846
0.201594 0.193988 0.045196
0.295538 0.194858 -0.030252
-0.001070 0.123754 -0.334386
-0.001070 0.076664 -0.057468
-0.001072 0.262934 -0.334438
-0.001070 0.306900 -0.038622
-0.001070 0.106160 0.060990
-0.001070 0.282534 0.061202
-0.001070 0.108266 0.217770
-0.001070 0.280552 0.217796
1.265068 0.159274 -0.081512
1.214724 0.159162 -0.150756
1.264998 0.234232 -0.081460
1.214570 0.234424 -0.150688
1.125292 0.164490 -0.135098
1.124880 0.232804 -0.135086
1.796956 0.133436 -0.033524
1.791732 0.138980 -0.159696
1.660582 0.132248 -0.170400
1.634698 0.132216 0.102764
1.802642 0.138928 0.101696
1.289346 0.179066 -0.069584
1.195366 0.196962 -0.032234
1.294534 0.194066 -0.020678
1.190500 0.196976 -0.103598
1.286812 0.194066 -0.124194
0.317850 0.176606 0.036958
0.215254 0.193902 0.118846
0.352616 0.195044 0.098340
0.201594 0.193988 0.045196
0.295538 0.194858 -0.030252
0.146262 0.258020 0.190864
-0.001070 0.280552 0.217796
-0.001070 0.108266 0.217770
0.146464 0.127356 0.190808
0.223024 0.243830 0.144390
0.223142 0.138022 0.144342
0.282452 0.235534 0.085128
0.282542 0.145176 0.085126
0.130266 0.274838 0.046096
0.130420 0.108710 0.046040
0.146262 0.258020 0.190864
0.146464 0.127356 0.190808
-0.001070 0.282534 0.061202
-0.001070 0.280552 0.217796
-0.001070 0.306900 -0.038622
-0.001070 0.106160 0.060990
-0.001070 0.108266 0.217770
-0.001070 0.076664 -0.057468
0.063016 0.248418 -0.264532
0.231750 0.146588 -0.011156
-0.001072 0.262934 -0.334438
0.231688 0.235886 -0.011248
0.048422 0.256828 -0.334284
0.062930 0.139134 -0.264470
-0.001070 0.123754 -0.334386
0.048664 0.130304 -0.334060
-0.001072 0.262934 -0.334438
-0.001070 0.123754 -0.334386
1.230978 0.228500 0.002746
1.134664 0.232404 0.001408
1.134996 0.165202 0.001422
1.231128 0.166388 0.002706
1.264998 0.234232 -0.081460
1.265068 0.159274 -0.081512
1.214570 0.234424 -0.150688
1.230978 0.228500 0.002746
1.264998 0.234232 -0.081460
1.134664 0.232404 0.001408
1.124880 0.232804 -0.135086
1.099900 0.234500 -0.064592
0.910906 0.286384 -0.065086
0.921906 0.267406 0.122776
0.969458 0.196474 -0.167176
1.134996 0.165202 0.001422
0.922010 0.127850 0.122916
1.125292 0.164490 -0.135098
0.911128 0.108256 -0.064930
1.100300 0.162882 -0.064426
1.134996 0.165202 0.001422
0.922010 0.127850 0.122916
1.214724 0.159162 -0.150756
1.231128 0.166388 0.002706
1.265068 0.159274 -0.081512
0.282296 0.134240 0.021988
0.254624 0.196354 -0.068552
0.282422 0.251510 0.021850
0.337316 0.164792 0.144074
0.337392 0.224366 0.144094
1.779756 0.165300 -0.123256
1.779768 0.217024 -0.123156
1.881476 0.226664 -0.135186
1.876278 0.143720 -0.135174
1.970710 0.138654 -0.164692
1.970712 0.231530 -0.164696
2.062538 0.231574 -0.133904
2.062536 0.138608 -0.133904
2.107662 0.231604 -0.021312
2.107662 0.138576 -0.021312
2.050590 0.231572 0.085500
2.050588 0.138610 0.085500
1.955972 0.231542 0.105692
1.955970 0.138642 0.105690
1.866432 0.226682 0.062618
1.861172 0.143732 0.062622
1.790070 0.164834 0.048982
1.789666 0.218768 0.050678
1.802604 0.228520 0.101688
1.802642 0.138928 0.101696
1.796956 0.133436 -0.033524
1.796834 0.244304 -0.033528
1.791620 0.228550 -0.159684
1.791732 0.138980 -0.159696
1.256598 0.166108 0.028846
1.266758 0.162620 -0.065132
1.256298 0.224442 0.028892
1.266604 0.237002 -0.065114
1.247250 0.224550 -0.134278
1.247394 0.166060 -0.134234
1.790070 0.164834 0.048982
1.861172 0.143732 0.062622
1.779756 0.165300 -0.123256
1.876278 0.143720 -0.135174
2.050588 0.138610 0.085500
1.955970 0.138642 0.105690
2.062536 0.138608 -0.133904
1.970710 0.138654 -0.164692
2.107662 0.138576 -0.021312
0.337316 0.164792 0.144074
0.649730 0.178876 0.068494
0.337392 0.224366 0.144094
0.649822 0.216184 0.068550
0.922010 0.127850 0.122916
0.282422 0.251510 0.021850
0.921906 0.267406 0.122776
0.910906 0.286384 -0.065086
0.698476 0.235650 -0.047730
0.691288 0.198944 -0.097408
0.254624 0.196354 -0.068552
0.969458 0.196474 -0.167176
0.282296 0.134240 0.021988
0.911128 0.108256 -0.064930
0.698332 0.155184 -0.047580
0.649730 0.178876 0.068494
0.337316 0.164792 0.144074
0.922010 0.127850 0.122916
1.791620 0.228550 -0.159684
1.608284 0.235154 -0.185194
1.796834 0.244304 -0.033528
1.580854 0.253390 -0.037146
1.247250 0.224550 -0.134278
1.802604 0.228520 0.101688
1.266604 0.237002 -0.065114
1.560472 0.235204 0.101070
1.256298 0.224442 0.028892
1.789666 0.218768 0.050678
1.866432 0.226682 0.062618
1.779768 0.217024 -0.123156
1.881476 0.226664 -0.135186
2.062538 0.231574 -0.133904
1.970712 0.231530 -0.164696
2.050590 0.231572 0.085500
1.955972 0.231542 0.105692
2.107662 0.231604 -0.021312
3 0 1 2
3 3 1 0
3 4 5 6
3 5 7 6
3 8 7 5
3 9 7 8
3 10 9 8
3 11 12 13
3 13 12 14
3 13 14 15
3 16 17 18
3 17 19 18
3 20 19 17
3 21 19 20
3 22 21 20
3 23 24 25
3 25 24 26
3 26 24 27
3 28 29 30
3 30 29 31
3 31 29 32
3 33 34 35
3 34 36 35
3 34 37 36
3 37 38 36
3 37 39 38
3 39 40 38
3 41 42 43
3 42 44 43
3 42 45 44
3 45 46 44
3 47 48 49
3 50 47 49
3 51 47 50
3 52 53 54
3 52 55 53
3 52 56 55
3 57 58 59
3 57 60 58
3 57 61 60
3 62 63 64
3 65 62 64
3 66 62 65
3 67 66 65
3 68 66 67
3 69 68 67
3 68 70 66
3 71 69 67
3 70 72 66
3 73 71 67
3 70 74 72
3 74 75 72
3 76 74 70
3 77 71 73
3 78 77 73
3 79 71 77
3 76 70 80
3 71 81 69
3 69 81 68
3 82 76 80
3 83 70 68
3 81 83 68
3 80 70 83
3 84 82 80
3 81 85 83
3 79 85 71
3 85 80 83
3 71 85 81
3 84 80 85
3 79 86 85
3 87 84 85
3 86 87 85
3 88 84 87
3 89 88 87
3 90 91 92
3 93 90 92
3 94 90 93
3 95 94 93
3 96 97 98
3 97 96 99
3 96 100 99
3 99 100 101
3 101 102 99
3 100 102 101
3 102 103 99
3 104 102 100
3 105 99 103
3 106 105 103
3 107 104 100
3 108 104 107
3 108 107 109
3 108 109 110
3 107 110 109
3 111 108 110
3 107 112 110
3 112 113 110
3 112 114 113
3 115 116 117
3 115 117 118
3 118 117 119
3 120 121 122
3 123 120 122
3 123 122 124
3 122 125 124
3 124 125 126
3 127 124 126
3 127 126 128
3 129 127 128
3 129 128 130
3 131 129 130
3 131 130 132
3 133 131 132
3 133 132 134
3 135 133 134
3 135 134 136
3 134 137 136
3 138 139 140
3 141 138 140
3 141 140 142
3 140 143 142
3 144 145 146
3 146 145 147
3 145 148 147
3 149 148 145
3 150 151 152
3 152 151 153
3 154 153 151
3 151 155 154
3 156 153 154
3 156 157 153
3 156 154 158
3 159 160 161
3 160 162 161
3 160 163 162
3 164 161 162
3 163 165 162
3 166 162 165
3 167 164 162
3 167 162 166
3 164 167 168
3 168 167 166
3 169 164 168
3 170 168 166
3 171 169 168
3 168 170 172
3 173 171 168
3 173 168 172
3 171 173 174
3 174 173 172
3 175 171 174
3 174 172 176
3 177 178 179
3 178 180 179
3 178 181 180
3 179 180 182
3 181 183 180
3 180 184 182
3 183 185 180
3 185 184 180
3 186 187 188
3 187 189 188
3 190 189 187
3 190 191 189
3 192 190 187
3 192 187 193
3 190 192 194
