ply
format ascii 1.0
comment Created by Blender 2.76 (sub 0) - www.blender.org, source file: ''
element vertex 195
property float x
property float y
property float z
element face 166
property list uchar uint vertex_indices
end_header
1.660582 -0.132248 -0.170400
1.517560 -0.160292 0.075892
1.564302 -0.160058 -0.173206
1.634698 -0.132216 0.102764
-0.001070 -0.280552 0.217796
0.146262 -0.258020 0.190864
-0.001070 -0.108266 0.217770
0.146464 -0.127356 0.190808
0.223024 -0.243830 0.144390
0.223142 -0.138022 0.144342
0.282452 -0.235534 0.085128
0.282542 -0.145176 0.085126
0.130266 -0.274838 0.046096
0.130420 -0.108710 0.046040
0.146262 -0.258020 0.190864
0.146464 -0.127356 0.190808
-0.001072 -0.282534 0.061202
-0.001070 -0.280552 0.217796
-0.001072 -0.306900 -0.038622
-0.001070 -0.106160 0.060990
-0.001070 -0.108266 0.217770
-0.001072 -0.076664 -0.057468
0.063016 -0.248418 -0.264532
0.231750 -0.146588 -0.011156
-0.001070 -0.262934 -0.334438
0.231688 -0.235886 -0.011248
0.048422 -0.256828 -0.334284
0.062930 -0.139134 -0.264470
-0.001070 -0.123754 -0.334386
0.048664 -0.130304 -0.334060
-0.001070 -0.262934 -0.334438
-0.001070 -0.123754 -0.334386
0.254624 -0.196354 -0.068552
0.282296 -0.134240 0.021988
0.282422 -0.251510 0.021850
0.337316 -0.164792 0.144074
0.337392 -0.224366 0.144094
1.134664 -0.232404 0.001408
1.230978 -0.228500 0.002746
1.134996 -0.165202 0.001422
1.231128 -0.166388 0.002706
1.264998 -0.234232 -0.081460
1.265068 -0.159274 -0.081512
0.922010 -0.127850 0.122916
0.921906 -0.267406 0.122776
1.134996 -0.165202 0.001422
1.134664 -0.232404 0.001408
0.910906 -0.286384 -0.065086
1.099900 -0.234500 -0.064592
1.124880 -0.232804 -0.135086
0.969458 -0.196474 -0.167176
1.214570 -0.234424 -0.150688
1.125292 -0.164490 -0.135098
1.230978 -0.228500 0.002746
1.264998 -0.234232 -0.081460
0.911128 -0.108256 -0.064930
1.100300 -0.162882 -0.064426
1.134996 -0.165202 0.001422
0.922010 -0.127850 0.122916
1.214724 -0.159162 -0.150756
1.231128 -0.166388 0.002706
1.265068 -0.159274 -0.081512
0.295538 -0.194858 -0.030252
0.320708 -0.218528 0.035674
0.201594 -0.193988 0.045196
0.215254 -0.193902 0.118846
0.352616 -0.195044 0.098340
1.286812 -0.194066 -0.124194
1.289356 -0.209152 -0.069538
1.190500 -0.196976 -0.103598
1.195366 -0.196962 -0.032234
1.294534 -0.194066 -0.020678
1.517560 -0.160292 0.075892
1.256598 -0.166108 0.028846
1.266758 -0.162620 -0.065132
1.564302 -0.160058 -0.173206
1.247394 -0.166060 -0.134234
1.247250 -0.224550 -0.134278
1.247394 -0.166060 -0.134234
1.564302 -0.160058 -0.173206
1.608284 -0.235154 -0.185194
1.660582 -0.132248 -0.170400
1.791620 -0.228550 -0.159684
1.791732 -0.138980 -0.159696
1.214570 -0.234424 -0.150688
1.124880 -0.232804 -0.135086
1.125292 -0.164490 -0.135098
1.214724 -0.159162 -0.150756
1.264998 -0.234232 -0.081460
1.265068 -0.159274 -0.081512
1.195366 -0.196962 -0.032234
1.289346 -0.179066 -0.069584
1.294534 -0.194066 -0.020678
1.190500 -0.196976 -0.103598
1.286812 -0.194066 -0.124194
-0.001072 -0.282534 0.061202
-0.001070 -0.280552 0.217796
-0.001070 -0.108266 0.217770
-0.001070 -0.106160 0.060990
-0.001072 -0.306900 -0.038622
-0.001072 -0.076664 -0.057468
-0.001070 -0.262934 -0.334438
-0.001070 -0.123754 -0.334386
1.802604 -0.228520 0.101688
1.802642 -0.138928 0.101696
1.634698 -0.132216 0.102764
1.560472 -0.235204 0.101070
1.517560 -0.160292 0.075892
1.256298 -0.224442 0.028892
1.256598 -0.166108 0.028846
0.215254 -0.193902 0.118846
0.317850 -0.176606 0.036958
0.352616 -0.195044 0.098340
0.201594 -0.193988 0.045196
0.295538 -0.194858 -0.030252
1.796956 -0.133436 -0.033524
1.802642 -0.138928 0.101696
1.634698 -0.132216 0.102764
1.660582 -0.132248 -0.170400
1.791732 -0.138980 -0.159696
1.256298 -0.224442 0.028892
1.266758 -0.162620 -0.065132
1.256598 -0.166108 0.028846
1.266604 -0.237002 -0.065114
1.247250 -0.224550 -0.134278
1.247394 -0.166060 -0.134234
1.881476 -0.226664 -0.135186
1.779768 -0.217024 -0.123156
1.779756 -0.165300 -0.123256
1.876278 -0.143720 -0.135174
1.970710 -0.138654 -0.164692
1.970712 -0.231530 -0.164696
2.062538 -0.231574 -0.133904
2.062536 -0.138608 -0.133904
2.107662 -0.231604 -0.021312
2.107662 -0.138576 -0.021312
2.050590 -0.231572 0.085500
2.050588 -0.138610 0.085500
1.955972 -0.231542 0.105692
1.955970 -0.138642 0.105690
1.866432 -0.226682 0.062618
1.861172 -0.143732 0.062622
1.790070 -0.164834 0.048982
1.789666 -0.218768 0.050678
1.790070 -0.164834 0.048982
1.779756 -0.165300 -0.123256
1.861172 -0.143732 0.062622
1.876278 -0.143720 -0.135174
2.050588 -0.138610 0.085500
1.955970 -0.138642 0.105690
2.062536 -0.138608 -0.133904
2.107662 -0.138576 -0.021312
1.970710 -0.138654 -0.164692
1.802642 -0.138928 0.101696
1.802604 -0.228520 0.101688
1.796956 -0.133436 -0.033524
1.796834 -0.244304 -0.033528
1.791620 -0.228550 -0.159684
1.791732 -0.138980 -0.159696
1.791620 -0.228550 -0.159684
1.796834 -0.244304 -0.033528
1.608284 -0.235154 -0.185194
1.580854 -0.253390 -0.037146
1.802604 -0.228520 0.101688
1.247250 -0.224550 -0.134278
1.560472 -0.235204 0.101070
1.266604 -0.237002 -0.065114
1.256298 -0.224442 0.028892
0.337316 -0.164792 0.144074
0.337392 -0.224366 0.144094
0.649730 -0.178876 0.068494
0.649822 -0.216184 0.068550
0.922010 -0.127850 0.122916
0.282422 -0.251510 0.021850
0.921906 -0.267406 0.122776
0.910906 -0.286384 -0.065086
0.698476 -0.235650 -0.047730
0.691288 -0.198944 -0.097408
0.254624 -0.196354 -0.068552
0.969458 -0.196474 -0.167176
0.282296 -0.134240 0.021988
0.911128 -0.108256 -0.064930
0.698332 -0.155184 -0.047580
0.649730 -0.178876 0.068494
0.337316 -0.164792 0.144074
0.922010 -0.127850 0.122916
1.789666 -0.218768 0.050678
1.779768 -0.217024 -0.123156
1.866432 -0.226682 0.062618
1.881476 -0.226664 -0.135186
2.062538 -0.231574 -0.133904
1.970712 -0.231530 -0.164696
2.050590 -0.231572 0.085500
1.955972 -0.231542 0.105692
2.107662 -0.231604 -0.021312
3 0 1 2
3 3 1 0
3 4 5 6
3 5 7 6
3 5 8 7
3 8 9 7
3 8 10 9
3 10 11 9
3 10 8 12
3 11 13 9
3 8 14 12
3 13 15 9
3 12 14 16
3 14 17 16
3 12 16 18
3 13 19 15
3 19 20 15
3 19 13 21
3 22 12 18
3 11 23 13
3 11 10 23
3 22 18 24
3 10 12 25
3 10 25 23
3 25 12 22
3 26 22 24
3 23 25 27
3 13 27 21
3 25 22 27
3 23 27 13
3 22 26 27
3 28 21 27
3 26 29 27
3 29 28 27
3 26 30 29
3 30 31 29
3 32 33 34
3 33 35 34
3 34 35 36
3 37 38 39
3 38 40 39
3 38 41 40
3 41 42 40
3 43 44 45
3 44 46 45
3 46 44 47
3 48 46 47
3 48 47 49
3 48 49 46
3 49 47 50
3 46 49 51
3 49 50 52
3 53 46 51
3 54 53 51
3 52 50 55
3 56 52 55
3 56 55 57
3 56 57 52
3 55 58 57
3 52 57 59
3 57 60 59
3 60 61 59
3 62 63 64
3 64 63 65
3 65 63 66
3 67 68 69
3 69 68 70
3 70 68 71
3 72 73 74
3 72 74 75
3 75 74 76
3 77 78 79
3 80 77 79
3 81 80 79
3 82 80 81
3 83 82 81
3 84 85 86
3 87 84 86
3 88 84 87
3 89 88 87
3 90 91 92
3 93 91 90
3 94 91 93
3 95 96 97
3 98 95 97
3 99 95 98
3 100 99 98
3 101 99 100
3 102 101 100
3 103 104 105
3 106 103 105
3 107 106 105
3 108 106 107
3 109 108 107
3 110 111 112
3 113 111 110
3 114 111 113
3 115 116 117
3 115 117 118
3 119 115 118
3 120 121 122
3 123 121 120
3 124 121 123
3 125 121 124
3 126 127 128
3 129 126 128
3 126 129 130
3 131 126 130
3 132 131 130
3 133 132 130
3 134 132 133
3 135 134 133
3 136 134 135
3 137 136 135
3 138 136 137
3 139 138 137
3 140 138 139
3 141 140 139
3 140 141 142
3 143 140 142
3 144 145 146
3 146 145 147
3 146 147 148
3 149 146 148
3 148 147 150
3 148 150 151
3 152 150 147
3 153 154 155
3 154 156 155
3 155 156 157
3 158 155 157
3 159 160 161
3 160 162 161
3 160 163 162
3 161 162 164
3 163 165 162
3 162 166 164
3 165 167 162
3 167 166 162
3 168 169 170
3 169 171 170
3 170 171 172
3 171 169 173
3 171 174 172
3 174 171 175
3 176 171 173
3 175 171 176
3 176 173 177
3 175 176 177
3 173 178 177
3 179 175 177
3 177 178 180
3 179 177 181
3 182 177 180
3 177 182 181
3 182 180 183
3 181 182 183
3 180 184 183
3 185 181 183
3 186 187 188
3 187 189 188
3 188 189 190
3 189 191 190
3 192 188 190
3 193 188 192
3 194 192 190
